<svg xmlns="http://www.w3.org/2000/svg" width="512" height="512" viewBox="0 0 512 512" version="1.1"><path d="M 151.836 150.919 C 133.945 156.641, 121.617 178.189, 126.965 194.394 C 130.686 205.670, 138.002 203.726, 154.115 187.177 C 165.070 175.926, 167.258 174.132, 170.738 173.544 C 181.668 171.698, 191.185 182.007, 189.598 193.973 C 187.683 208.406, 202.536 211.489, 207.005 197.586 C 216.120 169.228, 182.777 141.024, 151.836 150.919 M 330.251 154.545 C 313.940 158.937, 303.848 171.834, 303.682 188.500 C 303.488 207.926, 313.351 209.502, 329.163 192.573 C 348.895 171.446, 369.803 174.180, 367.397 197.572 C 366.127 209.915, 379.477 214.918, 384.073 203.823 C 395.435 176.393, 362.181 145.947, 330.251 154.545 M 161.384 297.913 C 121.727 315.922, 197.950 363.597, 257.395 357.964 C 307.517 353.215, 362.912 316.567, 344.009 300.661 C 337.627 295.291, 334.176 296.480, 323.099 307.870 C 285.863 346.155, 223.031 346.309, 185.019 308.208 C 172.628 295.787, 169.278 294.328, 161.384 297.913" stroke="none" fill="#fcbc74" fill-rule="evenodd"/><path d="M 218.838 1.040 C 181.589 5.387, 149.455 17.726, 147.442 28.456 C 146.847 31.627, 145.961 32.387, 137.627 36.880 C -139.059 186.037, 62.840 609.971, 354.123 491.465 C 391.147 476.402, 399.792 468.313, 393.031 455.061 C 388.508 446.195, 379.322 444.472, 368.303 450.422 C 117.688 585.755, -107.736 245.820, 116.500 70.708 C 132.724 58.038, 152.163 45.793, 155 46.456 C 163.294 48.393, 164.583 48.248, 174.580 44.246 C 369.758 -33.886, 571.304 209.167, 452.559 379.473 C 446.384 388.330, 445.847 390.938, 449.455 394.545 C 454.068 399.159, 457.585 397.452, 465.622 386.694 C 584.750 227.254, 424.626 -22.974, 218.838 1.040" stroke="none" fill="#fcdc84" fill-rule="evenodd"/></svg>